<svg width="32" height="32" viewBox="0 0 32 32" fill="none" xmlns="http://www.w3.org/2000/svg">
<path d="M1.23223 27.2322C0.255922 28.2085 0.255922 29.7915 1.23223 30.7678C2.20854 31.7441 3.79146 31.7441 4.76777 30.7678L1.23223 27.2322ZM31.5 3C31.5 1.61929 30.3807 0.499999 29 0.499999H6.5C5.11929 0.499999 4 1.61929 4 3C4 4.38071 5.11929 5.5 6.5 5.5H26.5V25.5C26.5 26.8807 27.6193 28 29 28C30.3807 28 31.5 26.8807 31.5 25.5V3ZM4.76777 30.7678L30.7678 4.76777L27.2322 1.23223L1.23223 27.2322L4.76777 30.7678Z" fill="white"/>
</svg>
